<svg version="1.1" id="Layer_1" xmlns="http://www.w3.org/2000/svg" xmlns:xlink="http://www.w3.org/1999/xlink" x="0px" y="0px"
	 width="100%" viewBox="0 0 192 192" enable-background="new 0 0 192 192" xml:space="preserve">
<path fill="#000000" opacity="1.000000" stroke="none" 
	d="
M1.000000,69.000000 
	C1.000000,46.000004 1.000000,23.500011 1.000000,1.000012 
	C64.999977,1.000008 128.999954,1.000008 192.999954,1.000004 
	C192.999969,64.999962 192.999969,128.999924 192.999985,192.999908 
	C129.000046,192.999939 65.000099,192.999939 1.000077,192.999969 
	C1.000000,151.833328 1.000000,110.666664 1.000000,69.000000 
M185.021027,37.958046 
	C185.021027,37.958046 185.079819,37.935738 185.013123,37.086262 
	C185.986359,23.475300 169.593033,8.511041 158.608643,9.251606 
	C149.412857,9.221203 140.217056,9.190800 130.274857,9.025480 
	C120.820488,9.074928 111.366119,9.124377 101.000038,9.039307 
	C85.695061,8.755591 70.390083,8.471876 54.151016,8.042953 
	C48.429882,8.367040 42.600197,8.104902 37.010708,9.139922 
	C26.109900,11.158452 17.206219,16.444353 12.428023,27.089497 
	C9.132672,34.431072 9.109101,42.246922 9.027708,50.983315 
	C9.074793,62.301815 9.121877,73.620316 9.034347,85.876984 
	C8.985308,94.903320 8.936268,103.929665 8.209534,113.486809 
	C8.141903,125.931770 7.819098,138.382202 8.084991,150.820023 
	C8.309681,161.330460 10.841055,171.114105 20.535015,178.200150 
	C24.295879,180.142120 27.929756,183.408829 31.840837,183.783737 
	C44.842327,185.030045 57.943447,185.237015 71.849220,185.897293 
	C73.779060,185.604538 75.706413,185.077591 77.639145,185.057083 
	C90.068138,184.925140 102.498322,184.904099 115.849388,184.981277 
	C128.092758,185.323242 140.338531,185.956223 152.578262,185.855392 
	C157.097275,185.818161 161.602051,184.052704 166.829803,183.001648 
	C175.763535,179.247864 182.031906,172.518631 183.744598,163.285797 
	C185.522583,153.701065 185.225540,143.731400 185.978821,133.145920 
	C185.595184,131.088745 185.211533,129.031570 184.970795,126.050926 
	C184.926254,111.677429 184.881699,97.303925 184.972977,82.016800 
	C185.258575,74.678246 185.544159,67.339691 185.641174,59.184349 
	C185.427277,57.611416 184.989380,56.031162 185.040497,54.466888 
	C185.209152,49.305450 185.554626,44.149788 185.877533,38.466770 
	C185.594101,38.276348 185.310669,38.085926 185.021027,37.958046 
z"/>
<path fill="#F0523E" opacity="1.000000" stroke="none" 
	d="
M101.911758,9.173826 
	C111.366119,9.124377 120.820488,9.074928 131.015839,9.273551 
	C140.875549,9.670948 149.994278,9.820274 159.113007,9.969601 
	C169.593033,8.511041 185.986359,23.475300 184.624878,37.536575 
	C181.462708,38.418919 178.701874,38.998165 175.911606,39.246666 
	C172.210266,39.576294 169.763184,41.156532 169.080292,44.601147 
	C167.874695,35.287457 163.691956,28.666805 154.418655,26.972668 
	C149.102798,26.001514 143.560806,26.112808 138.116287,26.032990 
	C126.124870,25.857195 114.130714,25.869253 102.086815,25.351934 
	C101.994560,19.657423 101.953156,14.415624 101.911758,9.173826 
z"/>
<path fill="#D070A0" opacity="1.000000" stroke="none" 
	d="
M9.168215,50.069687 
	C9.109101,42.246922 9.132672,34.431072 12.428023,27.089497 
	C17.206219,16.444353 26.109900,11.158452 37.010708,9.139922 
	C42.600197,8.104902 48.429882,8.367040 54.635765,8.522232 
	C55.451920,14.272631 55.783325,19.543751 55.643028,24.886190 
	C52.356895,24.970501 49.488373,24.635122 46.738258,25.062218 
	C38.695980,26.311186 30.274658,27.583778 27.023403,36.576290 
	C25.257877,41.459496 24.853241,46.834728 23.417141,51.986588 
	C18.389088,51.346664 13.778651,50.708176 9.168215,50.069687 
z"/>
<path fill="#1A7CB7" opacity="1.000000" stroke="none" 
	d="
M19.885841,177.916092 
	C10.841055,171.114105 8.309681,161.330460 8.084991,150.820023 
	C7.819098,138.382202 8.141903,125.931770 8.823193,113.234528 
	C9.620154,112.988373 9.803457,112.994492 10.422724,113.003571 
	C15.180554,113.343719 19.502422,113.680923 23.891085,114.409180 
	C23.965040,122.610191 24.194998,130.427933 23.921770,138.228073 
	C23.595888,147.531311 24.406977,156.302048 31.937658,163.167160 
	C27.806746,168.283096 23.846292,173.099594 19.885841,177.916092 
z"/>
<path fill="#17795B" opacity="1.000000" stroke="none" 
	d="
M20.210426,178.058121 
	C23.846292,173.099594 27.806746,168.283096 32.253536,163.345459 
	C37.714870,164.788254 42.619297,167.326233 47.681038,167.692993 
	C55.732155,168.276352 63.888180,167.411819 72.008530,167.615936 
	C71.680275,173.995605 71.343323,179.919037 71.006371,185.842468 
	C57.943447,185.237015 44.842327,185.030045 31.840837,183.783737 
	C27.929756,183.408829 24.295879,180.142120 20.210426,178.058121 
z"/>
<path fill="#BAA742" opacity="1.000000" stroke="none" 
	d="
M166.113312,183.075470 
	C161.602051,184.052704 157.097275,185.818161 152.578262,185.855392 
	C140.338531,185.956223 128.092758,185.323242 115.424171,184.499130 
	C115.078720,178.698563 115.158485,173.380142 115.679001,168.041870 
	C120.472176,167.910477 124.839767,167.990646 129.173843,167.647446 
	C138.191452,166.933411 147.191330,165.995132 156.431946,165.365280 
	C159.814697,171.412842 162.964005,177.244156 166.113312,183.075470 
z"/>
<path fill="#F3B645" opacity="1.000000" stroke="none" 
	d="
M166.471558,183.038559 
	C162.964005,177.244156 159.814697,171.412842 156.782837,165.304810 
	C163.236206,162.173676 167.724182,157.501846 168.876083,150.629883 
	C169.849930,144.820023 169.781067,138.835403 170.577484,132.994537 
	C175.932877,133.350677 180.884415,133.640381 185.835968,133.930084 
	C185.225540,143.731400 185.522583,153.701065 183.744598,163.285797 
	C182.031906,172.518631 175.763535,179.247864 166.471558,183.038559 
z"/>
<path fill="#3C8E58" opacity="1.000000" stroke="none" 
	d="
M115.238251,168.061722 
	C115.158485,173.380142 115.078720,178.698563 114.963531,184.431808 
	C102.498322,184.904099 90.068138,184.925140 77.639145,185.057083 
	C75.706413,185.077591 73.779060,185.604538 71.427795,185.869873 
	C71.343323,179.919037 71.680275,173.995605 72.475067,167.554672 
	C74.415901,167.021454 75.900696,166.950790 77.381622,166.998901 
	C87.218277,167.318451 97.053596,167.679550 106.890526,167.989899 
	C109.671097,168.077621 112.455566,168.041199 115.238251,168.061722 
z"/>
<path fill="#F06884" opacity="1.000000" stroke="none" 
	d="
M56.114735,24.814869 
	C55.783325,19.543751 55.451920,14.272631 55.102806,8.594837 
	C70.390083,8.471876 85.695061,8.755591 101.455902,9.106565 
	C101.953156,14.415624 101.994560,19.657423 101.608162,25.429321 
	C86.158485,25.577904 71.136612,25.196386 56.114735,24.814869 
z"/>
<path fill="#F67F39" opacity="1.000000" stroke="none" 
	d="
M185.907394,133.537994 
	C180.884415,133.640381 175.932877,133.350677 170.500778,132.544739 
	C169.995026,125.712601 170.048019,119.395195 169.926712,113.081139 
	C169.733963,103.049034 169.424881,93.019165 169.620789,82.987991 
	C174.718689,83.003464 179.360809,83.019279 184.002029,83.500290 
	C184.003159,95.371254 183.950699,106.777481 184.044693,118.182495 
	C184.068848,121.115074 184.554337,124.043861 184.827896,126.974388 
	C185.211533,129.031570 185.595184,131.088745 185.907394,133.537994 
z"/>
<path fill="#8B72AA" opacity="1.000000" stroke="none" 
	d="
M9.097961,50.526501 
	C13.778651,50.708176 18.389088,51.346664 23.482492,52.451332 
	C23.921190,63.652966 23.876917,74.388420 23.603018,85.156448 
	C23.373392,85.189026 22.925219,85.310310 22.473019,85.229431 
	C18.020441,85.134766 14.020063,85.120979 9.808961,85.055206 
	C9.598237,85.003220 9.168961,84.938812 9.168961,84.938812 
	C9.121877,73.620316 9.074793,62.301815 9.097961,50.526501 
z"/>
<path fill="#F15637" opacity="1.000000" stroke="none" 
	d="
M184.002914,83.035095 
	C179.360809,83.019279 174.718689,83.003464 169.551834,82.530014 
	C169.074036,70.380447 169.120987,58.688519 169.489212,47.197327 
	C170.210190,51.096256 170.739563,54.786537 170.965851,58.495312 
	C171.127548,61.145264 171.386185,63.179844 174.912674,62.315014 
	C178.523682,61.429443 182.188492,60.763317 185.829758,60.001137 
	C185.544159,67.339691 185.258575,74.678246 184.696152,82.497177 
	C184.419327,82.977547 184.002914,83.035103 184.002914,83.035095 
z"/>
<path fill="#F35833" opacity="1.000000" stroke="none" 
	d="
M185.735474,59.592743 
	C182.188492,60.763317 178.523682,61.429443 174.912674,62.315014 
	C171.386185,63.179844 171.127548,61.145264 170.965851,58.495312 
	C170.739563,54.786537 170.210190,51.096256 169.421478,46.868340 
	C169.072769,45.894581 169.113052,45.450542 169.153336,45.006508 
	C169.763184,41.156532 172.210266,39.576294 175.911606,39.246666 
	C178.701874,38.998165 181.462708,38.418919 184.658234,37.961311 
	C185.079819,37.935738 185.021027,37.958046 185.138138,38.124210 
	C185.423126,38.544334 185.615433,38.778179 185.832199,38.991909 
	C185.554626,44.149788 185.209152,49.305450 185.040497,54.466888 
	C184.989380,56.031162 185.427277,57.611416 185.735474,59.592743 
z"/>
<path fill="#EF8646" opacity="1.000000" stroke="none" 
	d="
M184.002029,83.500290 
	C184.002914,83.035103 184.419327,82.977547 184.628235,82.953987 
	C184.881699,97.303925 184.926254,111.677429 184.899353,126.512657 
	C184.554337,124.043861 184.068848,121.115074 184.044693,118.182495 
	C183.950699,106.777481 184.003159,95.371254 184.002029,83.500290 
z"/>
<path fill="#287EA7" opacity="1.000000" stroke="none" 
	d="
M9.101654,85.407898 
	C9.168961,84.938812 9.598237,85.003220 9.805490,85.514999 
	C10.004082,95.018051 9.995421,104.009331 9.986761,113.000610 
	C9.803457,112.994492 9.620154,112.988373 9.162041,112.969131 
	C8.936268,103.929665 8.985308,94.903320 9.101654,85.407898 
z"/>
<path fill="#E6604D" opacity="1.000000" stroke="none" 
	d="
M158.860825,9.610603 
	C149.994278,9.820274 140.875549,9.670948 131.389038,9.341009 
	C140.217056,9.190800 149.412857,9.221203 158.860825,9.610603 
z"/>
<path fill="#F0523E" opacity="1.000000" stroke="none" 
	d="
M185.854858,38.729340 
	C185.615433,38.778179 185.423126,38.544334 185.141235,38.092937 
	C185.310669,38.085926 185.594101,38.276348 185.854858,38.729340 
z"/>
<path fill="#000000" opacity="1.000000" stroke="none" 
	d="
M169.080292,44.601147 
	C169.113052,45.450542 169.072769,45.894581 169.100220,46.667603 
	C169.120987,58.688519 169.074036,70.380447 169.096039,82.530365 
	C169.424881,93.019165 169.733963,103.049034 169.926712,113.081139 
	C170.048019,119.395195 169.995026,125.712601 170.096954,132.478302 
	C169.781067,138.835403 169.849930,144.820023 168.876083,150.629883 
	C167.724182,157.501846 163.236206,162.173676 156.549377,165.088562 
	C147.191330,165.995132 138.191452,166.933411 129.173843,167.647446 
	C124.839767,167.990646 120.472176,167.910477 115.679001,168.041870 
	C112.455566,168.041199 109.671097,168.077621 106.890526,167.989899 
	C97.053596,167.679550 87.218277,167.318451 77.381622,166.998901 
	C75.900696,166.950790 74.415901,167.021454 72.466370,167.098419 
	C63.888180,167.411819 55.732155,168.276352 47.681038,167.692993 
	C42.619297,167.326233 37.714870,164.788254 32.423996,163.046021 
	C24.406977,156.302048 23.595888,147.531311 23.921770,138.228073 
	C24.194998,130.427933 23.965040,122.610191 23.954815,113.993973 
	C23.911934,111.790817 23.872114,110.393951 23.900703,108.531845 
	C23.923624,100.419037 23.878136,92.771454 23.832645,85.123878 
	C23.876917,74.388420 23.921190,63.652966 23.900108,52.452766 
	C24.853241,46.834728 25.257877,41.459496 27.023403,36.576290 
	C30.274658,27.583778 38.695980,26.311186 46.738258,25.062218 
	C49.488373,24.635122 52.356895,24.970501 55.643028,24.886190 
	C71.136612,25.196386 86.158485,25.577904 101.659019,25.882034 
	C114.130714,25.869253 126.124870,25.857195 138.116287,26.032990 
	C143.560806,26.112808 149.102798,26.001514 154.418655,26.972668 
	C163.691956,28.666805 167.874695,35.287457 169.080292,44.601147 
M103.073677,79.198151 
	C102.943321,78.549385 102.907753,77.863113 102.668114,77.257599 
	C99.915810,70.303253 105.397224,61.055050 112.743073,59.722076 
	C114.273575,59.444355 116.000038,57.659218 116.642113,56.146770 
	C116.971153,55.371689 115.234230,52.739235 114.198776,52.593250 
	C112.615913,52.370090 110.225586,53.067970 109.237854,54.255981 
	C104.795387,59.599312 100.726883,65.253548 97.016495,70.145691 
	C92.912827,64.683784 88.605179,58.707165 83.948776,53.015881 
	C83.253082,52.165569 80.610252,52.068623 79.432732,52.691093 
	C78.281357,53.299744 77.164673,55.350925 77.307190,56.626495 
	C77.438492,57.801548 79.091476,59.400841 80.369705,59.759266 
	C90.422462,62.578133 94.583069,70.387825 90.305573,79.797966 
	C87.872238,75.839767 85.812729,71.583504 82.937576,67.977585 
	C73.140450,55.690369 60.774689,48.439236 44.550694,51.275169 
	C41.734501,51.767433 37.846291,55.429886 37.397266,58.119572 
	C36.596420,62.916645 37.883778,68.111267 38.597614,73.096748 
	C39.165379,77.062080 39.994991,81.014427 41.059456,84.875748 
	C41.803604,87.575134 42.469051,90.859268 44.359825,92.555733 
	C47.717346,95.568192 51.978397,97.573624 55.153290,100.020531 
	C47.731747,103.460197 43.676468,109.382034 44.176548,117.438179 
	C44.443035,121.731224 46.740322,125.875954 47.931351,130.140594 
	C48.958141,133.817139 50.500977,136.435745 55.009201,136.126114 
	C56.179508,136.045746 57.913311,137.163834 58.596981,138.236023 
	C61.330662,142.523148 64.990906,142.651291 69.306473,141.400955 
	C70.653938,141.010574 72.346359,140.916779 73.635437,141.376068 
	C78.787148,143.211609 81.856621,140.719360 84.056435,136.579727 
	C86.770424,131.472549 89.258224,126.245178 91.997490,121.785820 
	C93.180466,124.819214 94.538139,128.273788 98.551155,126.603279 
	C100.260071,125.891899 101.064178,123.006927 102.866333,121.515053 
	C105.088821,126.363869 107.152878,131.293594 109.576340,136.039780 
	C112.241676,141.259659 115.413147,142.538376 121.220917,141.410522 
	C122.104507,141.238922 123.097054,141.342697 123.988167,141.544479 
	C128.022263,142.458099 131.404739,142.301239 134.809402,138.996292 
	C137.375031,136.505814 142.929230,136.270340 144.325928,133.569244 
	C147.319214,127.780388 150.345062,121.712669 149.344284,114.388199 
	C148.315643,106.859985 142.662903,103.571999 138.729080,99.028290 
	C140.031281,98.390602 141.280823,97.593452 142.644852,97.142952 
	C148.407501,95.239731 152.475586,92.334816 152.369934,85.298782 
	C152.311478,81.405281 152.665710,76.806007 154.686279,73.749344 
	C157.522034,69.459465 157.033829,65.205055 156.904999,60.877029 
	C156.765518,56.191174 154.586197,52.390762 149.674362,51.031071 
	C140.098083,48.380161 131.500092,51.513691 123.418076,56.171013 
	C113.907860,61.651340 108.063736,70.472191 103.073677,79.198151 
z"/>
<path fill="#1777A5" opacity="1.000000" stroke="none" 
	d="
M23.832294,108.997078 
	C23.872114,110.393951 23.911934,111.790817 23.888023,113.602905 
	C19.502422,113.680923 15.180554,113.343719 10.422724,113.003571 
	C9.995421,104.009331 10.004082,95.018051 10.016214,85.566986 
	C14.020063,85.120979 18.020441,85.134766 22.492125,85.673004 
	C23.253050,93.797325 23.542671,101.397202 23.832294,108.997078 
z"/>
<path fill="#2D7DA1" opacity="1.000000" stroke="none" 
	d="
M23.900703,108.531845 
	C23.542671,101.397202 23.253050,93.797325 22.944324,85.753876 
	C22.925219,85.310310 23.373392,85.189026 23.603020,85.156448 
	C23.878136,92.771454 23.923624,100.419037 23.900703,108.531845 
z"/>
<path fill="#F05B39" opacity="1.000000" stroke="none" 
	d="
M91.843765,121.069748 
	C89.258224,126.245178 86.770424,131.472549 84.056435,136.579727 
	C81.856621,140.719360 78.787148,143.211609 73.635437,141.376068 
	C72.346359,140.916779 70.653938,141.010574 69.306473,141.400955 
	C64.990906,142.651291 61.330662,142.523148 58.596981,138.236023 
	C57.913311,137.163834 56.179508,136.045746 55.009201,136.126114 
	C50.500977,136.435745 48.958141,133.817139 47.931351,130.140594 
	C46.740322,125.875954 44.443035,121.731224 44.176548,117.438179 
	C43.676468,109.382034 47.731747,103.460197 55.898472,99.922607 
	C62.140469,99.638062 67.637283,99.451431 72.914703,99.506767 
	C68.984428,103.420334 64.361702,106.548058 61.772697,110.888786 
	C57.712959,117.695343 61.853386,125.631340 69.483086,127.524208 
	C74.609108,128.795914 79.188751,127.340828 82.690697,123.651131 
	C85.859901,120.311989 88.414459,116.389481 91.392944,113.109138 
	C91.645149,116.019302 91.744453,118.544525 91.843765,121.069748 
z"/>
<path fill="#F05B39" opacity="1.000000" stroke="none" 
	d="
M137.977051,99.206284 
	C142.662903,103.571999 148.315643,106.859985 149.344284,114.388199 
	C150.345062,121.712669 147.319214,127.780388 144.325928,133.569244 
	C142.929230,136.270340 137.375031,136.505814 134.809402,138.996292 
	C131.404739,142.301239 128.022263,142.458099 123.988167,141.544479 
	C123.097054,141.342697 122.104507,141.238922 121.220917,141.410522 
	C115.413147,142.538376 112.241676,141.259659 109.576340,136.039780 
	C107.152878,131.293594 105.088821,126.363869 102.446472,120.848587 
	C102.195496,117.637459 102.364388,115.092796 102.682274,112.860367 
	C106.401535,117.298897 109.514214,121.977486 113.658401,125.411095 
	C118.787880,129.661057 126.170105,128.607971 130.494751,124.084351 
	C134.693176,119.692757 135.030411,113.682487 130.836136,108.141846 
	C128.574875,105.154709 125.554077,102.742531 123.323189,99.986832 
	C128.505951,99.670578 133.241501,99.438431 137.977051,99.206284 
z"/>
<path fill="#071F34" opacity="1.000000" stroke="none" 
	d="
M102.533279,112.548134 
	C102.364388,115.092796 102.195496,117.637459 102.153030,120.645920 
	C101.064178,123.006927 100.260071,125.891899 98.551155,126.603279 
	C94.538139,128.273788 93.180466,124.819214 91.920624,121.427780 
	C91.744453,118.544525 91.645149,116.019302 91.410538,112.735062 
	C91.204369,105.819595 91.130432,99.663170 91.063911,93.506668 
	C91.030449,90.408920 91.010475,87.311028 91.291199,84.048126 
	C91.388008,82.624374 91.178017,81.365685 90.968033,80.106995 
	C94.583069,70.387825 90.422462,62.578133 80.369705,59.759266 
	C79.091476,59.400841 77.438492,57.801548 77.307190,56.626495 
	C77.164673,55.350925 78.281357,53.299744 79.432732,52.691093 
	C80.610252,52.068623 83.253082,52.165569 83.948776,53.015881 
	C88.605179,58.707165 92.912827,64.683784 97.016495,70.145691 
	C100.726883,65.253548 104.795387,59.599312 109.237854,54.255981 
	C110.225586,53.067970 112.615913,52.370090 114.198776,52.593250 
	C115.234230,52.739235 116.971153,55.371689 116.642113,56.146770 
	C116.000038,57.659218 114.273575,59.444355 112.743073,59.722076 
	C105.397224,61.055050 99.915810,70.303253 102.668114,77.257599 
	C102.907753,77.863113 102.943321,78.549385 102.906891,79.932190 
	C102.562866,82.433128 102.385620,84.200012 102.197815,86.373550 
	C102.545593,90.142555 102.903931,93.504906 103.203094,97.337585 
	C102.940376,102.721313 102.736832,107.634727 102.533279,112.548134 
z"/>
<path fill="#EE7B98" opacity="1.000000" stroke="none" 
	d="
M102.208366,85.966904 
	C102.385620,84.200012 102.562866,82.433128 102.935379,80.316925 
	C108.063736,70.472191 113.907860,61.651340 123.418076,56.171013 
	C131.500092,51.513691 140.098083,48.380161 149.674362,51.031071 
	C154.586197,52.390762 156.765518,56.191174 156.904999,60.877029 
	C157.033829,65.205055 157.522034,69.459465 154.686279,73.749344 
	C152.665710,76.806007 152.311478,81.405281 152.369934,85.298782 
	C152.475586,92.334816 148.407501,95.239731 142.644852,97.142952 
	C141.280823,97.593452 140.031281,98.390602 138.353058,99.117287 
	C133.241501,99.438431 128.505951,99.670578 123.360847,99.956421 
	C122.951286,100.010132 123.012611,100.085220 122.783966,99.882538 
	C121.969872,99.550087 121.384415,99.420319 120.548660,99.220230 
	C119.968361,99.048889 119.638367,98.947884 119.402985,98.682404 
	C119.701027,98.363228 119.875732,98.180984 120.423599,97.992233 
	C124.516655,97.043221 128.207809,96.073174 132.285431,95.096436 
	C140.931870,93.202515 145.733582,88.510811 145.738861,79.563736 
	C145.740097,77.493843 146.585144,75.370743 147.303909,73.366074 
	C148.825745,69.121628 150.946472,64.610397 147.242050,60.800072 
	C143.631210,57.086002 138.925949,58.764671 134.595581,59.898441 
	C133.974350,60.061092 133.407837,60.432823 132.451431,60.759571 
	C128.361969,62.847469 124.637093,64.883591 120.591568,67.024551 
	C114.250076,73.408569 108.229218,79.687737 102.208366,85.966904 
z"/>
<path fill="#EE7A99" opacity="1.000000" stroke="none" 
	d="
M90.636795,79.952484 
	C91.178017,81.365685 91.388008,82.624374 90.974487,83.913002 
	C84.592369,78.260323 78.833763,72.577705 72.870834,66.622864 
	C68.827103,64.467148 64.987686,62.583660 60.838440,60.469627 
	C59.582996,59.932293 58.602333,59.284958 57.697899,59.378071 
	C53.925461,59.766449 48.739899,59.103561 46.822128,61.265381 
	C44.906487,63.424797 45.993439,68.515366 46.292095,72.279060 
	C46.496696,74.857384 47.936577,77.323723 48.250748,79.909782 
	C49.451225,89.791397 52.313808,93.049446 62.427338,95.347687 
	C66.465981,96.369026 70.215225,97.171829 74.033714,98.147743 
	C73.780006,98.635506 73.457054,98.950157 73.134102,99.264801 
	C67.637283,99.451431 62.140469,99.638062 56.252556,99.912521 
	C51.978397,97.573624 47.717346,95.568192 44.359825,92.555733 
	C42.469051,90.859268 41.803604,87.575134 41.059456,84.875748 
	C39.994991,81.014427 39.165379,77.062080 38.597614,73.096748 
	C37.883778,68.111267 36.596420,62.916645 37.397266,58.119572 
	C37.846291,55.429886 41.734501,51.767433 44.550694,51.275169 
	C60.774689,48.439236 73.140450,55.690369 82.937576,67.977585 
	C85.812729,71.583504 87.872238,75.839767 90.636795,79.952484 
z"/>
<path fill="#3E8E59" opacity="1.000000" stroke="none" 
	d="
M72.914703,99.506767 
	C73.457054,98.950157 73.780006,98.635506 73.968369,97.810753 
	C64.389023,82.427582 64.279655,78.044350 73.075157,66.895096 
	C78.833763,72.577705 84.592369,78.260323 90.667686,84.078064 
	C91.010475,87.311028 91.030449,90.408920 91.063911,93.506668 
	C91.130432,99.663170 91.204369,105.819595 91.257645,112.350128 
	C88.414459,116.389481 85.859901,120.311989 82.690697,123.651131 
	C79.188751,127.340828 74.609108,128.795914 69.483086,127.524208 
	C61.853386,125.631340 57.712959,117.695343 61.772697,110.888786 
	C64.361702,106.548058 68.984428,103.420334 72.914703,99.506767 
M80.579109,111.844917 
	C78.718033,110.862228 76.929382,109.436111 74.960335,109.114548 
	C74.169914,108.985466 71.962761,111.553169 72.191902,112.419716 
	C72.650909,114.155624 74.080338,116.486443 75.582634,116.916100 
	C78.624458,117.786041 80.600517,115.946404 80.579109,111.844917 
z"/>
<path fill="#1B785A" opacity="1.000000" stroke="none" 
	d="
M119.308365,98.846878 
	C119.638367,98.947884 119.968361,99.048889 120.757492,99.457001 
	C121.815277,99.871132 122.413948,99.978172 123.012611,100.085220 
	C123.012611,100.085220 122.951286,100.010132 122.913628,100.040543 
	C125.554077,102.742531 128.574875,105.154709 130.836136,108.141846 
	C135.030411,113.682487 134.693176,119.692757 130.494751,124.084351 
	C126.170105,128.607971 118.787880,129.661057 113.658401,125.411095 
	C109.514214,121.977486 106.401535,117.298897 102.682274,112.860367 
	C102.736832,107.634727 102.940376,102.721313 103.590599,97.372894 
	C109.127632,97.574211 114.218002,98.210541 119.308365,98.846878 
M113.387108,111.816048 
	C114.609230,113.584572 115.520630,115.852394 117.194908,116.894348 
	C117.943466,117.360191 121.082878,115.688385 121.568665,114.396751 
	C122.062172,113.084549 120.741234,109.653130 120.009369,109.591530 
	C117.972679,109.420097 115.829346,110.515823 113.387108,111.816048 
z"/>
<path fill="#3C8E59" opacity="1.000000" stroke="none" 
	d="
M119.402985,98.682404 
	C114.218002,98.210541 109.127632,97.574211 103.649765,96.902573 
	C102.903931,93.504906 102.545593,90.142555 102.197815,86.373550 
	C108.229218,79.687737 114.250076,73.408569 120.778137,67.314590 
	C128.850494,75.984840 129.067108,85.637650 121.956169,94.608505 
	C121.161697,95.610779 120.659454,96.844696 120.021698,97.971191 
	C119.875732,98.180984 119.701027,98.363228 119.402985,98.682404 
z"/>
<path fill="#18795B" opacity="1.000000" stroke="none" 
	d="
M120.423592,97.992233 
	C120.659454,96.844696 121.161697,95.610779 121.956169,94.608505 
	C129.067108,85.637650 128.850494,75.984840 121.098770,67.209740 
	C124.637093,64.883591 128.361969,62.847469 132.662537,61.051807 
	C138.569977,66.572594 140.413879,73.055756 138.357300,80.089828 
	C136.839813,85.279999 134.096252,90.111710 131.898987,95.103119 
	C128.207809,96.073174 124.516655,97.043221 120.423592,97.992233 
z"/>
<path fill="#1D7CB5" opacity="1.000000" stroke="none" 
	d="
M132.285431,95.096436 
	C134.096252,90.111710 136.839813,85.279999 138.357300,80.089828 
	C140.413879,73.055756 138.569977,66.572594 133.027100,61.000031 
	C133.407837,60.432823 133.974350,60.061092 134.595581,59.898441 
	C138.925949,58.764671 143.631210,57.086002 147.242050,60.800072 
	C150.946472,64.610397 148.825745,69.121628 147.303909,73.366074 
	C146.585144,75.370743 145.740097,77.493843 145.738861,79.563736 
	C145.733582,88.510811 140.931870,93.202515 132.285431,95.096436 
z"/>
<path fill="#F05B39" opacity="1.000000" stroke="none" 
	d="
M122.783966,99.882538 
	C122.413948,99.978172 121.815277,99.871132 121.007782,99.527321 
	C121.384415,99.420319 121.969872,99.550087 122.783966,99.882538 
z"/>
<path fill="#18795B" opacity="1.000000" stroke="none" 
	d="
M72.870834,66.622864 
	C64.279655,78.044350 64.389023,82.427582 73.899124,97.637634 
	C70.215225,97.171829 66.465981,96.369026 62.256241,95.032257 
	C52.833611,81.443016 52.638859,71.276924 61.148277,60.700169 
	C64.987686,62.583660 68.827103,64.467148 72.870834,66.622864 
z"/>
<path fill="#1D7CB5" opacity="1.000000" stroke="none" 
	d="
M60.838440,60.469627 
	C52.638859,71.276924 52.833611,81.443016 61.966843,94.813721 
	C52.313808,93.049446 49.451225,89.791397 48.250748,79.909782 
	C47.936577,77.323723 46.496696,74.857384 46.292095,72.279060 
	C45.993439,68.515366 44.906487,63.424797 46.822128,61.265381 
	C48.739899,59.103561 53.925461,59.766449 57.697899,59.378071 
	C58.602333,59.284958 59.582996,59.932293 60.838440,60.469627 
z"/>
<path fill="#EC7B97" opacity="1.000000" stroke="none" 
	d="
M80.671677,112.225311 
	C80.600517,115.946404 78.624458,117.786041 75.582634,116.916100 
	C74.080338,116.486443 72.650909,114.155624 72.191902,112.419716 
	C71.962761,111.553169 74.169914,108.985466 74.960335,109.114548 
	C76.929382,109.436111 78.718033,110.862228 80.671677,112.225311 
z"/>
<path fill="#EB7B98" opacity="1.000000" stroke="none" 
	d="
M113.557617,111.463562 
	C115.829346,110.515823 117.972679,109.420097 120.009369,109.591530 
	C120.741234,109.653130 122.062172,113.084549 121.568665,114.396751 
	C121.082878,115.688385 117.943466,117.360191 117.194908,116.894348 
	C115.520630,115.852394 114.609230,113.584572 113.557617,111.463562 
z"/>
</svg>